<?xml version="1.0" encoding="utf-8"?>
<!-- Generator: Adobe Illustrator 16.0.0, SVG Export Plug-In . SVG Version: 6.00 Build 0)  -->
<!DOCTYPE svg PUBLIC "-//W3C//DTD SVG 1.1//EN" "http://www.w3.org/Graphics/SVG/1.1/DTD/svg11.dtd">
<svg version="1.1" id="Layer_1" xmlns="http://www.w3.org/2000/svg" xmlns:xlink="http://www.w3.org/1999/xlink" x="0px" y="0px"
	 width="134.207px" height="134.207px" viewBox="0 0 134.207 134.207" enable-background="new 0 0 134.207 134.207"
	 xml:space="preserve">
<rect x="-1.192" fill="none" width="134.208" height="134.207"/>
<g display="none">
	<polygon display="inline" fill="#123357" points="128.338,70.576 6.507,70.576 12.568,57.293 122.278,57.293 	"/>
	<path display="inline" fill="#F15F22" d="M110.84,35.788v-1.829c0-1.895-2.032-3.432-4.527-3.432h-77.78
		c-2.499,0-4.524,1.537-4.524,3.432v1.829H110.84z"/>
	<path display="inline" fill="#CDE3E8" d="M105.789,27.677v-1.618c0-1.672-1.791-3.031-3.995-3.031H33.053
		c-2.21,0-3.995,1.359-3.995,3.031v1.618H105.789z"/>
	<path display="inline" fill="#B7CBCE" d="M18.96,42.915c0,0.023-0.002,0.047-0.002,0.074v34.741c0,2.114,2.26,3.828,5.05,3.828
		h1.273l21.993-21.999L18.96,42.915z"/>
	<path display="inline" fill="#B7CBCE" d="M109.563,81.558h1.276c2.783,0,5.048-1.714,5.048-3.828V42.989
		c0-0.027,0-0.051-0.003-0.077L87.568,59.559L109.563,81.558z"/>
	<polygon display="inline" fill="#9FB8BA" points="87.568,59.559 67.422,71.409 47.274,59.559 25.281,81.558 109.563,81.558 	"/>
	<path display="inline" fill="#CDE3E8" d="M112.371,39.161H22.477c-2.754,0-3.495,1.672-3.516,3.754l28.313,16.644l20.148,11.85
		l20.146-11.85l28.316-16.647C115.867,40.833,115.12,39.161,112.371,39.161z"/>
	<path display="inline" fill="#B5B6B6" d="M24.008,80.793h86.832c2.783,0,5.048-1.717,5.048-3.834v-7.15h-10.688
		c-2.789,0-5.047,1.716-5.047,3.831v2.31c0,2.115-2.262,3.832-5.047,3.832H39.742c-2.787,0-5.05-1.717-5.05-3.832v-2.31
		c0-2.115-2.261-3.831-5.047-3.831H18.958v7.15C18.958,79.076,21.218,80.793,24.008,80.793z"/>
	<path display="inline" opacity="0.5" fill="#B5B6B6" d="M47.274,61.094l20.148,12.614l20.146-12.614l28.316-18.183
		c-0.007-0.507-0.061,0.539-0.163,0.095L87.568,59.559l-20.146,11.85l-20.148-11.85L19.123,43.011
		c-0.109,0.439-0.156-0.606-0.163-0.096L47.274,61.094z"/>
	<path display="inline" fill="#425F73" d="M128.338,114.261V70.576c0,0-2.261,0-5.048,0h-18.091c-2.789,0-5.047,1.713-5.047,3.832
		v2.31c0,2.112-2.262,3.828-5.047,3.828H39.742c-2.787,0-5.05-1.716-5.05-3.828v-2.31c0-2.118-2.261-3.832-5.047-3.832H11.554
		c-2.787,0-5.047,0-5.047,0v43.685H128.338z"/>
</g>
<g display="none">
	<path display="inline" fill="none" d="M54.694,19.423c-8.988-0.007-17.083,2.394-22.758,6.107
		c-1.264,0.826-2.387,1.712-3.389,2.633h52.291c-1-0.921-2.126-1.807-3.387-2.633C71.774,21.817,63.68,19.417,54.694,19.423z"/>
	<path display="inline" fill="none" d="M66.854,19.694H42.533c-4.631,0-8.388,3.758-8.388,8.386v0.083h41.093V28.08
		C75.238,23.452,71.483,19.694,66.854,19.694z"/>
	<path display="inline" fill="#425F73" d="M34.146,28.08c0-4.628,3.756-8.386,8.388-8.386h24.321c4.629,0,8.384,3.758,8.384,8.386
		v0.083h5.355v-2.908c0-5.839-4.732-10.568-10.572-10.568H39.363c-5.839,0-10.57,4.729-10.57,10.568v2.908h5.353V28.08z"/>
	<g display="inline">
		<path fill="#E2E2E2" d="M1.833,96.883c0,2.919,2.366,5.28,5.283,5.28h95.153c2.918,0,5.282-2.361,5.282-5.28V55.65H1.833V96.883z"
			/>
		<path opacity="0.5" fill="#B5B6B6" d="M107.552,55.65H1.833v5.285H37.69l23.469,24.474l16.625,16.754h24.486
			c2.918,0,5.282-2.361,5.282-5.28V55.65z"/>
		<rect x="1.833" y="49.306" fill="#425F73" width="105.719" height="6.344"/>
		<path fill="#E2E2E2" d="M102.27,28.164H7.116c-2.917,0-5.283,2.366-5.283,5.285v15.858h105.719V33.448
			C107.552,30.529,105.188,28.164,102.27,28.164z"/>
		<path fill="#FFFFFF" d="M102.27,28.164H7.116c-2.917,0-5.283,2.366-5.283,5.285v5.021c0-2.92,2.366-5.288,5.283-5.288h95.153
			c2.918,0,5.282,2.367,5.282,5.288v-5.021C107.552,30.529,105.188,28.164,102.27,28.164z"/>
	</g>
	<g display="inline">
		<rect x="45.706" y="55.65" fill="#123357" width="17.974" height="8.986"/>
	</g>
	<g display="inline">
		<g>
			<path fill="#425F73" d="M102.396,116.972c0,5.184-4.195,5.63-9.378,5.63l0,0c-5.182,0-9.382-0.446-9.382-5.63V85.705
				c0-5.182,4.2-9.38,9.382-9.38l0,0c5.183,0,9.378,4.198,9.378,9.38V116.972z"/>
			<path fill="#505161" d="M104.692,113.639c0,0.577-0.467,1.044-1.046,1.044H82.382c-0.574,0-1.039-0.467-1.039-1.044l0,0
				c0-0.577,0.465-1.039,1.039-1.039h21.265C104.226,112.6,104.692,113.062,104.692,113.639L104.692,113.639z"/>
			<path fill="#123357" d="M102.396,116.972V85.705c0-5.182-4.195-9.38-9.378-9.38v46.276
				C98.2,122.602,102.396,122.155,102.396,116.972z"/>
			<g>
				<path fill="#F15F22" d="M113.863,84.249c0,11.515-9.334,20.851-20.846,20.851c-11.514,0-20.846-9.336-20.846-20.851
					c0-11.512,9.332-20.839,20.846-20.839C104.529,63.41,113.863,72.737,113.863,84.249z"/>
			</g>
			<g>
				<path fill="none" stroke="#FFFFFF" stroke-width="0.4826" d="M85.787,79.087"/>
				<path fill="none" stroke="#FFFFFF" stroke-width="0.4826" d="M92.666,103.94"/>
				<path fill="none" stroke="#FFFFFF" stroke-width="0.4826" d="M100.174,79.087"/>
				<path fill="none" stroke="#FFFFFF" stroke-width="0.4826" d="M92.979,79.087"/>
				<path fill="none" stroke="#FFFFFF" stroke-width="0.4826" d="M85.787,79.087"/>
			</g>
		</g>
		
			<line fill="none" stroke="#F15F22" stroke-width="1.6667" stroke-linecap="round" stroke-linejoin="round" x1="93.018" y1="46.137" x2="93.018" y2="58.469"/>
		<g>
			
				<line fill="none" stroke="#F15F22" stroke-width="1.6667" stroke-linecap="round" stroke-linejoin="round" x1="131.429" y1="85.868" x2="119.098" y2="85.868"/>
			
				<line fill="none" stroke="#F15F22" stroke-width="1.6667" stroke-linecap="round" stroke-linejoin="round" x1="66.937" y1="85.868" x2="54.605" y2="85.868"/>
		</g>
		<g>
			
				<line fill="none" stroke="#F15F22" stroke-width="1.6667" stroke-linecap="round" stroke-linejoin="round" x1="120.178" y1="113.028" x2="111.457" y2="104.31"/>
			
				<line fill="none" stroke="#F15F22" stroke-width="1.6667" stroke-linecap="round" stroke-linejoin="round" x1="74.579" y1="67.427" x2="65.856" y2="58.708"/>
		</g>
		<g>
			
				<line fill="none" stroke="#F15F22" stroke-width="1.6667" stroke-linecap="round" stroke-linejoin="round" x1="120.178" y1="58.708" x2="111.457" y2="67.427"/>
			
				<line fill="none" stroke="#F15F22" stroke-width="1.6667" stroke-linecap="round" stroke-linejoin="round" x1="74.579" y1="104.31" x2="65.856" y2="113.028"/>
		</g>
	</g>
</g>
<g display="none">
	<rect x="17.325" y="41.921" display="inline" fill="#FFFFFF" width="99.53" height="66.21"/>
	<path display="inline" fill="#425F73" d="M121.854,39.631c0-2.502-2.024-4.526-4.527-4.526H16.85c-2.498,0-4.528,2.023-4.528,4.526
		v74.867h109.532V39.631z M116.855,108.132h-99.53v-66.21h99.53V108.132z"/>
	<path display="inline" fill="#123357" d="M16.85,124.042h100.477c2.503,0,4.527-2.026,4.527-4.521v-5.022H12.322v5.022
		C12.322,122.016,14.352,124.042,16.85,124.042z"/>
	<g display="inline">
		<path fill="#E2E2E2" d="M96.723,93.866c0,1.673-1.362,3.034-3.039,3.034h-68.64c-1.68,0-3.039-1.361-3.039-3.034V53.16
			c0-1.676,1.359-3.035,3.039-3.035h68.64c1.677,0,3.039,1.359,3.039,3.035V93.866z"/>
		<rect x="25.043" y="61.667" fill="#FFFFFF" width="68.64" height="32.8"/>
		<g>
			<rect x="29.394" y="66.523" fill="#EFEEEE" width="61.227" height="6.886"/>
			<rect x="29.394" y="74.93" fill="#EFEEEE" width="33.382" height="2.524"/>
		</g>
		<g>
			<rect x="29.394" y="79.586" fill="#EFEEEE" width="61.227" height="6.883"/>
			<rect x="29.394" y="87.989" fill="#EFEEEE" width="33.382" height="2.525"/>
		</g>
		<path fill="#FFFFFF" d="M28.684,56.332c0-1.008-0.811-1.822-1.819-1.822s-1.821,0.814-1.821,1.822
			c0,1.006,0.813,1.821,1.821,1.821S28.684,57.337,28.684,56.332z"/>
		<path fill="#FFFFFF" d="M34.611,56.332c0-1.008-0.818-1.822-1.826-1.822c-1.003,0-1.821,0.814-1.821,1.822
			c0,1.006,0.818,1.821,1.821,1.821C33.793,58.153,34.611,57.337,34.611,56.332z"/>
	</g>
	<path display="inline" opacity="0.5" fill="#B5B6B6" d="M101.063,41.921h-2.417L42.607,89.424l18.707,18.708l15.911,15.91h40.102
		c2.503,0,4.527-2.026,4.527-4.521V62.712L101.063,41.921z"/>
	<g display="inline">
		<g>
			<g>
				<g>
					<path fill="#CDE3E8" d="M68.182,95.359c-18.67,0-33.859-15.189-33.859-33.859c0-18.67,15.189-33.859,33.859-33.859
						s33.859,15.189,33.859,33.859C102.041,80.17,86.852,95.359,68.182,95.359z M68.182,33.04c-15.695,0-28.463,12.767-28.463,28.46
						c0,15.695,12.769,28.463,28.463,28.463c15.691,0,28.457-12.769,28.457-28.463C96.639,45.807,83.873,33.04,68.182,33.04z"/>
				</g>
				<g>
					<path fill="#123357" d="M68.182,28.641c18.146,0,32.859,14.713,32.859,32.859c0,18.147-14.713,32.859-32.859,32.859
						c-18.147,0-32.859-14.712-32.859-32.859C35.322,43.354,50.035,28.641,68.182,28.641 M68.182,90.964
						c16.269,0,29.457-13.193,29.457-29.463c0-16.269-13.188-29.46-29.457-29.46c-16.271,0-29.463,13.192-29.463,29.46
						C38.718,77.771,51.91,90.964,68.182,90.964 M68.182,26.641c-19.222,0-34.859,15.638-34.859,34.859
						c0,19.221,15.638,34.859,34.859,34.859s34.859-15.638,34.859-34.859C103.041,42.279,87.403,26.641,68.182,26.641L68.182,26.641
						z M68.182,88.964c-15.144,0-27.463-12.32-27.463-27.463c0-15.142,12.32-27.46,27.463-27.46c15.14,0,27.457,12.319,27.457,27.46
						C95.639,76.644,83.321,88.964,68.182,88.964L68.182,88.964z"/>
				</g>
			</g>
			<circle fill="#FFFFFF" cx="68.182" cy="61.502" r="30.123"/>
			<path fill="#DEDEDD" d="M97.638,61.656L84.67,48.687L83.012,50.2L69.519,36.712l-1.411,23.083l-4.042,1.712v4.844l19.219,20.443
				C91.843,81.674,97.584,72.339,97.638,61.656z"/>
			<path fill="#F15F22" d="M71.046,59.399l-0.356-6.949l-0.77-14.821c0.011-0.674-0.522-1.229-1.196-1.238
				c-0.205-0.009-0.409,0.042-0.579,0.128c-0.386,0.201-0.653,0.599-0.664,1.064L66.4,49.77l-0.839,9.471
				c-1.434,0.886-2.391,2.46-2.391,4.263c0,0.321,0.035,0.634,0.091,0.937c0.33,1.738,1.548,3.15,3.17,3.751
				c0.547,0.203,1.136,0.321,1.75,0.321c0.609,0,1.198-0.114,1.742-0.315c1.621-0.604,2.843-2.019,3.173-3.757
				c0.059-0.302,0.091-0.612,0.091-0.937C73.188,61.806,72.343,60.305,71.046,59.399z M68.213,65.501
				c-0.727,0.01-1.395-0.378-1.751-1.01c-0.157-0.287-0.244-0.6-0.249-0.925c-0.017-1.086,0.851-1.977,1.936-1.996
				c0.727-0.016,1.396,0.375,1.748,1.01c0.156,0.285,0.24,0.595,0.251,0.923C70.166,64.586,69.294,65.482,68.213,65.501z"/>
			<path fill="#F15F22" d="M84.67,48.687c-0.112-0.112-0.243-0.195-0.385-0.241c-0.316-0.099-0.674-0.029-0.926,0.214l-7.128,5.971
				l-4.015,3.356l0.03,0.609c0.988,0.69,1.71,1.726,2.002,2.929l2.843-3.15l7.557-8.378C85.012,49.641,85.026,49.056,84.67,48.687z"
				/>
		</g>
		<path fill="#123357" d="M81.73,17.896c0,2.576-2.077,4.663-4.649,4.663H59.283c-2.573,0-4.657-2.086-4.657-4.663l0,0
			c0-2.567,2.083-4.65,4.657-4.65h17.798C79.653,13.247,81.73,15.33,81.73,17.896L81.73,17.896z"/>
		<rect x="63.983" y="21.372" fill="#123357" width="8.396" height="5.109"/>
	</g>
	<path display="inline" opacity="0.5" fill="#B5B6B6" d="M112.234,67.221c0-7.095-1.946-13.74-5.315-19.447l-5.476-5.477
		c3.367,5.707,5.314,12.352,5.314,19.441c0,21.138-17.199,38.341-38.336,38.341c-8.379,0-16.135-2.715-22.451-7.295l5.476,5.48
		c6.317,4.574,14.071,7.291,22.449,7.291C95.034,105.557,112.234,88.354,112.234,67.221z"/>
</g>
<g display="none">
	<g display="inline">
		<polygon fill="#EFEEEE" points="45.038,26.839 45.038,48.156 23.72,48.156 23.72,110.45 95.644,110.45 95.644,26.839 		"/>
		<polygon opacity="0.5" fill="#B5B6B6" points="95.644,57.98 78.127,62.958 40.051,101.479 49.021,110.45 95.644,110.45 		"/>
		<g>
			<g>
				<rect x="43.79" y="34.777" fill="#EFEEEE" width="48.076" height="5.094"/>
				<rect x="43.79" y="40.996" fill="#EFEEEE" width="26.003" height="1.874"/>
			</g>
			<line fill="none" stroke="#EFEEEE" stroke-width="0.2299" x1="30.599" y1="45.274" x2="94.406" y2="45.274"/>
			<g>
				<rect x="28.034" y="49.162" fill="#EFEEEE" width="63.831" height="5.092"/>
				<rect x="28.034" y="55.38" fill="#EFEEEE" width="41.759" height="1.872"/>
			</g>
			<line fill="none" stroke="#EFEEEE" stroke-width="0.2299" x1="25.037" y1="59.658" x2="94.406" y2="59.658"/>
			<g>
				<rect x="28.034" y="63.548" fill="#EFEEEE" width="63.831" height="5.09"/>
				<rect x="28.034" y="69.769" fill="#EFEEEE" width="41.759" height="1.871"/>
			</g>
			<line fill="none" stroke="#EFEEEE" stroke-width="0.2299" x1="25.037" y1="74.041" x2="94.406" y2="74.041"/>
			<g>
				<rect x="28.034" y="78.532" fill="#EFEEEE" width="63.831" height="5.092"/>
				<rect x="28.034" y="84.751" fill="#EFEEEE" width="41.759" height="1.865"/>
			</g>
		</g>
		<linearGradient id="SVGID_1_" gradientUnits="userSpaceOnUse" x1="71.48" y1="74.6001" x2="34.379" y2="37.4991">
			<stop  offset="0.3407" style="stop-color:#FFFFFF"/>
			<stop  offset="1" style="stop-color:#B5B6B6"/>
		</linearGradient>
		<polygon opacity="0.5" fill="url(#SVGID_1_)" points="23.72,48.156 60.82,85.259 77.155,58.956 45.038,26.839 		"/>
		<polygon fill="#EFEEEE" points="45.038,26.839 23.72,48.156 45.038,48.156 		"/>
		<g>
			<g>
				<path fill="#4A7883" d="M59.706,96.681l1.73-10.479l-3.053-3.053l-2.451,2.447c1.042,1.307,0.973,3.207-0.235,4.418
					s-3.11,1.279-4.42,0.24l-11.339,11.338l0.835,0.664C48.003,95.022,59.706,96.681,59.706,96.681z"/>
				<path fill="#5D97AA" d="M50.987,85.306c1.207-1.207,3.108-1.275,4.415-0.236l2.449-2.449l-3.048-3.051L44.32,81.294
					c0,0,1.657,11.703-5.577,18.938l0.668,0.83l11.336-11.336C49.706,88.421,49.776,86.515,50.987,85.306z"/>
				<path fill="#5D97AA" d="M59.609,70.583l-2.629,2.625c-1.663,1.666-1.663,4.361-0.002,6.02l2.44,2.439l5.636-5.637L59.609,70.583
					z"/>
				<path fill="#5D97AA" d="M90.386,37.33L61.658,66.059c-1.191,1.19-1.191,3.125,0,4.315l4.527,4.525l30.884-30.885L90.386,37.33z"
					/>
				<path fill="#4A7883" d="M67.792,84.022l2.631-2.631l-5.369-5.361l-5.636,5.637l2.356,2.359
					C63.435,85.685,66.131,85.685,67.792,84.022z"/>
				<path fill="#4A7883" d="M97.068,44.015L66.185,74.899l4.751,4.75c1.193,1.193,3.122,1.193,4.315,0l28.729-28.728L97.068,44.015z
					"/>
			</g>
			<path fill="#F15F22" d="M99.306,33.016c-0.657-0.659-1.529-0.991-2.391-0.989c-0.863-0.002-1.729,0.327-2.389,0.989l-3.039,3.042
				c-0.302,0.293-0.3,0.78,0,1.08l6.214,6.215l5.971-5.972L99.306,33.016z"/>
			<path fill="#C34027" d="M111.698,46.916c0.006-0.84-0.356-1.784-1.199-2.612l-1.752-1.752c-0.122-0.182-0.26-0.353-0.42-0.516
				l-4.655-4.656l-5.971,5.972l6.504,6.504c0.144,0.138,0.336,0.222,0.54,0.222c0.2,0,0.393-0.084,0.536-0.222l3.046-3.042
				l-0.536-0.542l0.536,0.54c0.399-0.402,0.661-0.883,0.82-1.392l0.119,0.117c0.569,0.584,0.675,1.012,0.685,1.38
				c0.002,0.367-0.15,0.728-0.33,1.003c-0.09,0.139-0.18,0.25-0.246,0.322c-0.06,0.072-0.082,0.084-0.081,0.09l-17.633,17.63
				c-0.34,0.338-0.34,0.89,0,1.231c0.174,0.174,0.396,0.258,0.621,0.258c0.223,0,0.447-0.084,0.615-0.258h-0.001l17.603-17.603
				C110.523,49.545,111.665,48.591,111.698,46.916z"/>
		</g>
	</g>
	<circle display="inline" fill="#5D97AA" cx="38.807" cy="100.457" r="0.855"/>
	<circle display="inline" fill="#4A7883" cx="40.656" cy="102.085" r="0.856"/>
</g>
<g display="none">
	<path display="inline" fill="#425F73" d="M132.275,33.4c0-2.976-2.41-5.386-5.392-5.386H7.236c-2.973,0-5.391,2.41-5.391,5.386
		v76.116h130.43V33.4z M126.324,101.934H7.802V36.131h118.522V101.934z"/>
	<rect x="7.802" y="36.131" display="inline" fill="#FFFFFF" width="118.522" height="65.803"/>
	<path display="inline" fill="#123357" d="M7.236,120.883h119.647c2.981,0,5.392-2.413,5.392-5.388v-5.979H1.846v5.979
		C1.846,118.47,4.263,120.883,7.236,120.883z"/>
	<polygon display="inline" opacity="0.5" fill="#B5B6B6" points="126.324,60.808 112.714,47.197 101.646,36.131 63.631,36.131 
		40.188,47.197 21.41,47.197 76.145,101.934 126.324,101.934 	"/>
	<g display="inline" opacity="0.5">
		<polygon fill="#B5B6B6" points="98.824,45.895 98.824,28.014 93.934,28.014 93.482,16.406 45.079,16.406 45.079,45.895 
			26.301,45.895 71.948,87.246 117.604,45.895 		"/>
	</g>
	<g display="inline">
		<polygon fill="#CDE3E8" points="93.934,47.197 93.934,16.406 40.188,16.406 40.188,47.197 21.41,47.197 67.058,88.551 
			112.714,47.197 		"/>
	</g>
	<polygon display="inline" fill="#5D97AA" points="93.934,47.197 93.934,16.406 67.058,16.406 67.058,88.551 112.714,47.197 	"/>
</g>
<g display="none">
	<g display="inline">
		
			<line fill="none" stroke="#E2D5D6" stroke-width="1.6962" stroke-linecap="round" stroke-linejoin="round" x1="132.187" y1="43.131" x2="109.23" y2="48.204"/>
		<g>
			
				<line fill="none" stroke="#E2D5D6" stroke-width="1.6962" stroke-linecap="round" stroke-linejoin="round" x1="110.406" y1="4.023" x2="97.759" y2="23.843"/>
			
				<line fill="none" stroke="#E2D5D6" stroke-width="1.6962" stroke-linecap="round" stroke-linejoin="round" x1="109.086" y1="75.129" x2="128.902" y2="87.779"/>
		</g>
	</g>
	<g display="inline">
		
			<line fill="none" stroke="#E2D5D6" stroke-width="1.6962" stroke-linecap="round" stroke-linejoin="round" x1="1.506" y1="43.131" x2="24.459" y2="48.204"/>
		<g>
			
				<line fill="none" stroke="#E2D5D6" stroke-width="1.6962" stroke-linecap="round" stroke-linejoin="round" x1="23.286" y1="4.023" x2="35.931" y2="23.843"/>
			
				<line fill="none" stroke="#E2D5D6" stroke-width="1.6962" stroke-linecap="round" stroke-linejoin="round" x1="24.605" y1="75.129" x2="4.789" y2="87.779"/>
		</g>
	</g>
	<g display="inline">
		<path fill="#F15B2A" d="M36.726,62.634V94.77c0,0.418,0.008,0.814,0.031,1.217c0.649,15.483,13.875,16.859,30.094,16.859v-80.34
			C50.216,32.506,36.726,46.002,36.726,62.634z"/>
		<path fill="#CF4A27" d="M66.851,32.506v80.34c16.307,0,29.584-1.389,30.098-17.121c0.016-0.315,0.034-0.623,0.034-0.955V62.634
			C96.983,46.002,83.485,32.506,66.851,32.506z"/>
		<path fill="#B5B6B6" d="M39.573,105.314c-1.652-2.331-2.651-5.368-2.816-9.328c-4.747,2.597-7.565,5.83-7.565,9.328
			c0,2.2,1.122,4.297,3.127,6.19c1.509,1.427,3.523,2.742,5.955,3.91c1.758,0.844,3.733,1.609,5.888,2.285
			c6.305,1.975,14.16,3.152,22.69,3.18v-8.034C54.785,112.846,44.378,112.08,39.573,105.314z"/>
		<path fill="#425F73" d="M96.949,95.725c-0.131,4.096-1.137,7.213-2.826,9.59c-4.805,6.766-15.204,7.531-27.272,7.531v8.034
			c0.083,0,0.165,0,0.251,0c8.628,0,16.573-1.189,22.944-3.18c1.891-0.593,3.65-1.255,5.24-1.978
			c2.717-1.24,4.953-2.662,6.594-4.212c2.013-1.899,3.134-3.991,3.134-6.196C105.014,101.694,101.996,98.371,96.949,95.725z"/>
		<path fill="#425F73" d="M44.161,117.7c-2.154-0.676-4.13-1.441-5.888-2.285c-2.432-1.168-4.446-2.483-5.955-3.91
			c-2.005-1.894-3.127-3.99-3.127-6.19V117.7c0,8.559,16.838,15.509,37.66,15.559V120.88
			C58.321,120.853,50.466,119.675,44.161,117.7z"/>
		<path fill="#123357" d="M105.014,117.7v-12.386c0,2.205-1.121,4.297-3.134,6.196c-1.641,1.55-3.877,2.972-6.594,4.212
			c-1.59,0.723-3.35,1.385-5.24,1.978c-6.371,1.99-14.315,3.18-22.944,3.18c-0.086,0-0.168,0-0.251,0v12.379
			c0.083,0.007,0.165,0.007,0.251,0.007C88.037,133.266,105.014,126.294,105.014,117.7z"/>
	</g>
</g>
<g id="sourceing" display="none">
	<path display="inline" fill="none" stroke="#FFFFFF" d="M104.386,90.783c15.697,0,28.424-12.722,28.424-28.423
		c0-15.692-12.727-28.419-28.424-28.419c-5.055,0-9.789,1.332-13.9,3.646C90.078,19.83,75.583,5.542,57.716,5.542
		c-18.098,0-32.789,14.682-32.789,32.793c0,1.865,0.191,3.681,0.494,5.453C12.555,43.922,2.167,54.382,2.167,67.287
		c0,12.98,10.522,23.497,23.499,23.497"/>
	<path display="inline" fill="#FFFFFF" d="M63.69,112.624c0,8.601-6.971,15.582-15.578,15.582c-8.601,0-15.577-6.981-15.577-15.582
		c0-8.606,15.577-28.697,15.577-28.697S63.69,104.018,63.69,112.624z"/>
	<path display="inline" fill="#FFFFFF" d="M91.842,84.809c0,7.245-5.87,13.12-13.12,13.12c-7.24,0-13.115-5.875-13.115-13.12
		S78.722,60.64,78.722,60.64S91.842,77.563,91.842,84.809z"/>
</g>
<g display="none">
	<g display="inline">
		<path fill="#FFFFFF" d="M128.556,72.583c6.62-6.587,4.572-19.903-6.884-19.903l-30.146,0.014c1.142-6.39,2.798-16.96,2.735-17.962
			c-0.633-9.465-6.665-20.981-6.931-21.455c-1.103-2.053-6.655-4.833-12.243-3.641c-7.228,1.552-7.968,6.159-7.936,7.431
			c0,0,0.306,12.616,0.339,15.978C64.039,40.638,52.123,60.585,48.51,62.12c-0.868-0.524-1.842-0.808-2.862-0.808H7.559
			c-3.235,0-5.839,2.617-5.839,5.847v52.636c0.235,2.834,2.644,5.063,5.487,5.063h34.214c3.037,0,5.501-2.465,5.501-5.501v-1.746
			c0,0,1.272-0.094,1.848,0.275c2.203,1.399,4.918,3.149,8.466,3.149h51.057c19.084,0,17.033-16.929,15.295-19.247
			c3.222-3.516,5.213-9.706,2.497-14.597C128.172,84.978,131.846,78.891,128.556,72.583z M40.248,119.35H7.198V66.812h33.049V119.35
			z M119.653,72.131l-0.315,1.296c8.798,2.504,4.114,12.643-2.192,13.3l-0.311,1.301c8.432,2.147,4.406,12.588-2.198,13.292
			l-0.306,1.294c6.883,1.139,5.215,12.893-5.217,12.893l-51.937,0.017c-3.661,0-6.999-4.179-9.696-4.179h-2.356V70.904
			c2.932-1.824,6.543-4.183,8.542-5.884c3.793-3.226,19.292-28.276,19.292-31.417c0-3.132-0.344-16.69-0.344-16.69
			s3.037-3.925,9.824-1.06c0,0,5.713,10.712,6.293,19.244c0,0-2.566,17.583-3.947,23.097h35.997
			C129.626,58.203,127.937,70.832,119.653,72.131z"/>
	</g>
</g>
<g id="hand" display="none">
	<g display="inline">
		<path fill="#FFFFFF" d="M128.25,66.185c6.641-6.609,4.586-19.968-6.906-19.968L91.1,46.231c1.145-6.41,2.807-17.016,2.742-18.021
			c-0.633-9.497-6.684-21.049-6.951-21.524c-1.105-2.06-6.678-4.848-12.282-3.653c-7.251,1.557-7.994,6.179-7.962,7.456
			c0,0,0.308,12.657,0.339,16.029c-3.463,7.619-15.418,27.631-19.044,29.17c-0.869-0.525-1.847-0.81-2.87-0.81H6.857
			C3.612,54.876,1,57.502,1,60.743v52.809c0.235,2.843,2.653,5.079,5.504,5.079h34.327c3.046,0,5.518-2.472,5.518-5.518v-1.753
			c0,0,1.276-0.094,1.856,0.277c2.209,1.403,4.934,3.159,8.492,3.159h51.225c19.146,0,17.088-16.984,15.344-19.311
			c3.232-3.527,5.23-9.737,2.504-14.645C127.865,78.619,131.551,72.513,128.25,66.185z M39.654,113.104H6.496v-52.71h33.159V113.104
			z M119.318,65.731l-0.316,1.299c8.826,2.513,4.129,12.685-2.199,13.346l-0.313,1.304c8.459,2.154,4.422,12.629-2.205,13.335
			l-0.309,1.299c6.908,1.141,5.234,12.934-5.23,12.934l-52.108,0.019c-3.671,0-7.021-4.192-9.728-4.192h-2.363V64.5
			c2.942-1.829,6.564-4.196,8.569-5.903c3.807-3.237,19.356-28.369,19.356-31.519c0-3.142-0.344-16.745-0.344-16.745
			s3.047-3.938,9.854-1.064c0,0,5.732,10.747,6.314,19.307c0,0-2.574,17.64-3.959,23.172h36.113
			C129.322,51.757,127.631,64.428,119.318,65.731z"/>
	</g>
</g>
<g id="placement" display="none">
	<path display="inline" fill="#FFFFFF" d="M79.317,2.865c-16.622,0-30.101,13.477-30.101,30.099
		c0,16.626,30.101,64.046,30.101,64.046s30.105-47.42,30.105-64.046C109.423,16.341,95.944,2.865,79.317,2.865z M79.317,50.045
		c-9.427,0-17.062-7.646-17.062-17.067c0-9.431,7.635-17.067,17.062-17.067c9.431,0,17.072,7.636,17.072,17.067
		C96.39,42.399,88.748,50.045,79.317,50.045z"/>
	<path display="inline" fill="#FFFFFF" d="M35.457,95.007c0,5.746-4.652,10.399-10.393,10.399c-5.745,0-10.398-4.653-10.398-10.399
		c0-5.744,4.653-10.397,10.398-10.397C30.805,84.609,35.457,89.263,35.457,95.007z"/>
	<path display="inline" fill="#FFFFFF" d="M89.715,101.575c0,5.735-4.652,10.394-10.397,10.394c-5.74,0-10.398-4.658-10.398-10.394
		c0-5.746,4.658-10.399,10.398-10.399C85.063,91.176,89.715,95.829,89.715,101.575z"/>
	<path display="inline" fill="#FFFFFF" d="M132.207,66.271c0,5.741-4.653,10.402-10.397,10.402c-5.741,0-10.404-4.661-10.404-10.402
		c0-5.736,4.663-10.393,10.404-10.393C127.554,55.877,132.207,60.535,132.207,66.271z"/>
	
		<line display="inline" fill="none" stroke="#FFFFFF" stroke-linecap="round" stroke-linejoin="round" x1="1.449" y1="131.627" x2="19.483" y2="103.785"/>
	
		<line display="inline" fill="none" stroke="#FFFFFF" stroke-linecap="round" stroke-linejoin="round" x1="35.457" y1="95.007" x2="79.317" y2="101.575"/>
	
		<line display="inline" fill="none" stroke="#FFFFFF" stroke-linecap="round" stroke-linejoin="round" x1="86.695" y1="94.243" x2="121.81" y2="66.275"/>
</g>
<g id="candidates" display="none">
	<g display="inline">
		<path fill="none" stroke="#FFFFFF" stroke-linecap="round" stroke-linejoin="round" d="M96.579,29.578
			c0,16.026-12.993,29.019-29.016,29.019c-16.024,0-29.008-12.992-29.008-29.019c0-16.019,12.983-29.007,29.008-29.007
			C83.586,0.571,96.579,13.56,96.579,29.578z"/>
		<path fill="none" stroke="#FFFFFF" stroke-linecap="round" stroke-linejoin="round" d="M97.74,126.66h15.344V76.594
			c0-9.938-8.062-17.997-18.004-17.997H40.047c-9.934,0-18.005,8.06-18.005,17.997v50.066h15.343"/>
	</g>
	<path display="inline" fill="none" stroke="#FFFFFF" stroke-linecap="round" stroke-linejoin="round" d="M70.395,76.971
		c-1.561,1.573-4.103,1.573-5.662,0l-9.913-9.903c-1.56-1.556-1.56-4.094,0-5.662h25.488c1.56,1.568,1.56,4.106,0,5.662
		L70.395,76.971z"/>
	<path display="inline" fill="none" stroke="#FFFFFF" stroke-linecap="round" stroke-linejoin="round" d="M63.452,79.125
		c2.271-2.271,5.95-2.271,8.222,0c0,0,16.404,36.482,14.135,38.752l-14.135,14.135c-2.271,2.276-5.951,2.276-8.222,0l-14.134-14.135
		C47.038,115.607,63.452,79.125,63.452,79.125z"/>
</g>
<path id="phone" display="none" fill="#FFFFFF" d="M3.084,16.816c-7.927,49.357,29.543,84.403,29.543,84.403
	s35.049,37.479,84.413,29.551c19.193-3.34,18.587-17.963,2.427-34.105c-3.675-3.695-6.862-6.152-9.73-7.674
	c-9.707-5.129-15.754,0.859-24.694,9.801c-11.571,11.57-34.434-15.553-34.434-15.553S23.494,60.383,35.082,48.83
	c8.922-8.956,14.911-14.995,9.774-24.71c-1.51-2.868-3.964-6.055-7.649-9.733C21.057-1.768,6.424-2.379,3.084,16.816z"/>
<g id="checks" display="none">
	<polyline display="inline" fill="none" stroke="#FFFFFF" points="97.612,66.561 97.612,123.733 2.238,123.733 2.238,10.475 
		97.612,10.475 97.612,45.852 	"/>
	<polygon display="inline" fill="#FFFFFF" points="115.41,21.554 64.832,72.123 39.544,46.841 22.688,63.704 64.832,105.849 
		132.266,38.41 	"/>
</g>
<g id="fingerprints" display="none">
	<path display="inline" fill="#FFFFFF" d="M35.468,104.057c0,0,7.464-7.845,9.485-9.905c6.701-2.505,26.028-7.387,29.143-6.116
		c0.216,0.84,0.636,1.616,1.246,2.226l18.335,18.334l38.539-38.538l-15.767-15.78c-1.845-1.831-4.832-1.831-6.676,0l-1.055,1.068
		c0,0-0.84-0.712-0.954-1.297c-0.496-2.168-1.08-4.896-3.229-7.044l-30.962-30.96c-11.57-11.571-20.611-0.051-20.955,2.403
		c-4.081,0.178-9.053,2.708-10.362,7.349c-2.607,0.063-8.532,1.526-10.363,7.349c-7.998-0.012-14.852,9.295-7.896,16.237
		l18.297,18.284c-4.564,3.18-11.99,8.582-12.549,9.231c-5.366,6.129-8.697,16.771-8.812,17.217
		c-0.585,1.906,1.106,6.967,5.213,9.638C31.476,107.185,34.718,104.832,35.468,104.057z M25.461,95.512
		c0,0,3.027-9.942,7.857-15.474c0,0,12.22-9.116,16.403-11.608L27.877,46.598c-5.353-5.378,3.331-12.015,9.142-7.781l0.979-0.598
		c-3.815-6.848,5.174-10.16,9.396-6.726l0.978-0.598c-3.814-6.421,4.959-10.324,9.396-6.739l0.967-0.598
		c-3.484-4.857,4.654-10.986,10.986-4.654l31.508,31.483c2.225,2.225,1.704,6.783,3.344,8.417l1.425,1.431L81.471,84.755
		c-2.873-0.667-6.498-1.43-8.734-1.603c-4.26-0.342-28.851,5.456-30.758,7.356c-1.908,1.888-9.918,10.331-9.918,10.331
		S27.839,101.36,25.461,95.512z"/>
	<path display="inline" fill="none" stroke="#FFFFFF" stroke-linecap="round" stroke-linejoin="round" d="M49.378,105.112
		c-2.645,10.414-12.08,18.119-23.319,18.119c-13.275,0-24.044-10.771-24.044-24.045c0-11.239,7.705-20.674,18.119-23.319"/>
</g>
<g id="pschometic" display="none">
	
		<line display="inline" fill="none" stroke="#FFFFFF" stroke-linecap="round" stroke-linejoin="round" x1="65.67" y1="14.728" x2="65.67" y2="-0.14"/>
	<g display="inline">
		<g>
			
				<line fill="none" stroke="#FFFFFF" stroke-linecap="round" stroke-linejoin="round" x1="113.779" y1="46.237" x2="126.039" y2="36.615"/>
			
				<line fill="none" stroke="#FFFFFF" stroke-linecap="round" stroke-linejoin="round" x1="113.779" y1="89.899" x2="126.039" y2="99.527"/>
		</g>
		<g>
			
				<line fill="none" stroke="#FFFFFF" stroke-linecap="round" stroke-linejoin="round" x1="17.546" y1="46.237" x2="5.301" y2="36.615"/>
			
				<line fill="none" stroke="#FFFFFF" stroke-linecap="round" stroke-linejoin="round" x1="17.546" y1="89.899" x2="5.301" y2="99.527"/>
		</g>
	</g>
	<polyline display="inline" fill="none" stroke="#FFFFFF" stroke-linecap="round" stroke-linejoin="round" points="41.061,119.886 
		47.968,119.886 83.371,119.886 90.279,119.886 	"/>
	<path display="inline" fill="none" stroke="#FFFFFF" stroke-linecap="round" stroke-linejoin="round" d="M83.371,98.071
		c11.297-6.262,19.021-18.163,19.021-31.99c0-20.286-16.438-36.723-36.723-36.723c-20.286,0-36.722,16.437-36.722,36.723
		c0,13.827,7.737,25.728,19.02,31.99v11h35.403V98.071z"/>
	<path display="inline" fill="#FFFFFF" d="M65.67,134.833c0,0,17.701-1.094,17.701-10.868v-14.894H47.968v14.894
		C47.968,133.739,65.67,134.833,65.67,134.833z"/>
</g>
<g id="interview" display="none">
	<path display="inline" fill="none" stroke="#FFFFFF" stroke-linecap="round" stroke-linejoin="round" d="M86.545,55.716
		c0-20.204-19.111-36.586-42.689-36.586c-23.561,0-42.673,16.382-42.673,36.586c0,19.163,17.216,34.871,39.115,36.421
		c4.511,6.041,13.343,15.429,28.294,22.294c0,0-7.75-10.043-13.097-23.535C73.407,86.54,86.545,72.454,86.545,55.716z"/>
	<path display="inline" fill="none" stroke="#FFFFFF" stroke-linecap="round" stroke-linejoin="round" d="M76.678,92.132
		c4.496,2.358,9.691,3.945,15.279,4.512c-1.838,5.505-5.176,13.725-9.889,18.433c0,0,14.684-9.481,22.918-18.974
		c16.068-3.038,28.037-14.564,28.037-28.356c0-16.114-16.305-29.169-36.42-29.169c-1.387,0-2.766,0.066-4.115,0.18"/>
	
		<line display="inline" fill="none" stroke="#FFFFFF" stroke-linecap="round" stroke-linejoin="round" x1="17.452" y1="41.332" x2="71.136" y2="41.332"/>
	
		<line display="inline" fill="none" stroke="#FFFFFF" stroke-linecap="round" stroke-linejoin="round" x1="17.452" y1="55.458" x2="71.136" y2="55.458"/>
	
		<line display="inline" fill="none" stroke="#FFFFFF" stroke-linecap="round" stroke-linejoin="round" x1="17.452" y1="69.591" x2="71.136" y2="69.591"/>
</g>
<g id="offer" display="none">
	<path display="inline" fill="none" stroke="#FFFFFF" stroke-linecap="round" stroke-linejoin="round" d="M88.432,46.169
		c-3.107-3.119-3.107-8.146,0-11.259l14.951-14.953c-9.613-4.861-21.607-3.394-29.63,4.644l-6.57-6.564L1.393,83.839l49.369,49.368
		l65.793-65.796l-6.557-6.563c8.025-8.031,9.498-20.031,4.637-29.638L99.678,46.169C96.576,49.263,91.537,49.263,88.432,46.169z"/>
	<path display="inline" fill="none" stroke="#FFFFFF" stroke-linecap="round" stroke-linejoin="round" d="M129.697,4.889
		c-3.1-3.105-8.133-3.105-11.246,0c-0.008,0-0.008,0.007-0.008,0.007L88.432,34.91c-3.107,3.113-3.107,8.14,0,11.259
		c3.105,3.094,8.145,3.094,11.246,0l30.02-30.027v-0.006l0,0C132.805,13.029,132.805,7.996,129.697,4.889z"/>
</g>
<g id="matched-candi" display="none">
	<g display="inline">
		<path fill="#FFFFFF" d="M97.248,30.573c0,16.65-13.5,30.145-30.138,30.145c-16.657,0-30.151-13.495-30.151-30.145
			c0-16.644,13.494-30.138,30.151-30.138C83.748,0.435,97.248,13.929,97.248,30.573z"/>
		<path fill="none" stroke="#FFFFFF" d="M91.816,131.436h22.582V79.423c0-10.325-8.373-18.705-18.707-18.705H38.515
			c-10.319,0-18.705,8.38-18.705,18.705v52.013H42.39"/>
	</g>
	<path display="inline" fill="#FFFFFF" d="M70.041,85.418c-1.621,1.627-4.26,1.627-5.886,0L53.862,75.125
		c-1.627-1.62-1.627-4.251,0-5.885h26.483c1.619,1.634,1.619,4.265,0,5.885L70.041,85.418z"/>
	<path display="inline" fill="#FFFFFF" d="M62.833,87.647c2.359-2.359,6.183-2.359,8.542,0c0,0,17.045,26.703,14.688,29.062
		l-14.688,14.688c-2.359,2.365-6.183,2.365-8.542,0l-14.687-14.688C45.787,114.351,62.833,87.647,62.833,87.647z"/>
</g>
<g id="onboarding" display="none">
	<g display="inline">
		
			<rect x="22.713" y="24.654" fill="none" stroke="#FFFFFF" stroke-linecap="round" stroke-linejoin="round" width="28.275" height="21.737"/>
	</g>
	<g display="inline">
		
			<rect x="88.701" y="24.654" fill="none" stroke="#FFFFFF" stroke-linecap="round" stroke-linejoin="round" width="28.275" height="21.737"/>
	</g>
	<polyline display="inline" fill="none" stroke="#FFFFFF" stroke-linecap="round" stroke-linejoin="round" points="50.988,35.135 
		78.639,35.135 78.639,8.125 102.004,8.125 102.004,24.654 	"/>
	<polyline display="inline" fill="none" stroke="#FFFFFF" stroke-linecap="round" stroke-linejoin="round" points="36.03,24.654 
		36.03,8.125 12.651,8.125 12.651,35.135 1.98,35.135 1.98,126.809 132.227,126.809 132.227,35.135 116.977,35.135 	"/>
</g>
<g id="grey_x5F_searchicon" display="none">
	<path display="inline" fill="none" stroke="#91ADBF" stroke-width="1.2917" stroke-linecap="round" stroke-linejoin="round" d="
		M2.479,51.365c0,27.443,22.229,49.666,49.674,49.666c27.428,0,49.674-22.223,49.674-49.666c0-27.444-22.246-49.666-49.674-49.666
		C24.708,1.699,2.479,23.921,2.479,51.365z"/>
	
		<line display="inline" fill="none" stroke="#91ADBF" stroke-width="1.2917" stroke-linecap="round" stroke-linejoin="round" x1="88.281" y1="87.489" x2="123.387" y2="122.607"/>
	
		<line display="inline" fill="none" stroke="#91ADBF" stroke-width="2.5835" stroke-linecap="round" stroke-linejoin="round" x1="100.689" y1="99.902" x2="131.169" y2="130.39"/>
</g>
<path id="bell" fill="#91ADBF" d="M119.348,111.465l-9.243-15.404c-4.271-7.107-6.523-15.245-6.523-23.539V59.026
	c0-17.021-11.364-31.435-26.91-36.079v-9.663c0-5.931-4.831-10.761-10.754-10.761c-5.95,0-10.767,4.83-10.767,10.761v9.663
	c-15.533,4.645-26.912,19.058-26.912,36.079v13.495c0,8.294-2.252,16.432-6.522,23.539l-9.244,15.404
	c-0.495,0.83-0.508,1.863-0.039,2.706c0.482,0.84,1.394,1.367,2.357,1.367h37.976c-0.181,0.885-0.313,1.776-0.313,2.694
	c0,7.417,6.029,13.452,13.463,13.452c7.42,0,13.448-6.035,13.461-13.452c0-0.918-0.129-1.81-0.3-2.694h37.965
	c0.964,0,1.862-0.518,2.344-1.367C119.855,113.328,119.855,112.295,119.348,111.465z"/>
</svg>
